<svg xmlns="http://www.w3.org/2000/svg" version="1.1" xmlns:xlink="http://www.w3.org/1999/xlink" width="512" height="512" x="0" y="0" viewBox="0 0 40 40" style="enable-background:new 0 0 512 512" xml:space="preserve" class=""><g><g fill="#000" fill-rule="evenodd" clip-rule="evenodd"><path d="M20 9.817c-1.504 0-2.866.23-4.09.597a1.25 1.25 0 1 1-.72-2.395A16.66 16.66 0 0 1 20 7.317c8.047 0 14.583 6.466 14.583 14.466 0 8-6.536 14.467-14.583 14.467S5.417 29.784 5.417 21.783c0-2.975.913-5.75 2.463-8.049a1.25 1.25 0 1 1 2.073 1.398 11.864 11.864 0 0 0-2.036 6.651c0 6.6 5.396 11.967 12.083 11.967 6.686 0 12.083-5.367 12.083-11.967 0-6.6-5.396-11.966-12.083-11.966z" fill="#000000" opacity="1" data-original="#000000" class=""></path><path d="M18.597 3.951c.579.376.744 1.15.368 1.73l-2.117 3.264 3.295 2.12a1.25 1.25 0 0 1-1.353 2.103l-4.35-2.8a1.25 1.25 0 0 1-.372-1.732l2.8-4.316a1.25 1.25 0 0 1 1.729-.369z" fill="#000000" opacity="1" data-original="#000000" class=""></path></g></g></svg>